<?xml version="1.0" standalone="no"?>
<!DOCTYPE svg PUBLIC "-//W3C//DTD SVG 20010904//EN"
 "http://www.w3.org/TR/2001/REC-SVG-20010904/DTD/svg10.dtd">
<svg version="1.0" xmlns="http://www.w3.org/2000/svg"
 width="225.000000pt" height="225.000000pt" viewBox="0 0 225.000000 225.000000"
 preserveAspectRatio="xMidYMid meet">

<g transform="translate(0.000000,225.000000) scale(0.100000,-0.100000)"
fill="#000000" stroke="none">
<path d="M1072 2023 c5 -31 7 -62 4 -70 -3 -7 0 -13 7 -13 8 0 12 22 12 70 0
57 -3 70 -16 70 -14 0 -15 -8 -7 -57z"/>
<path d="M1196 2069 c4 -7 14 -42 24 -78 16 -63 17 -65 29 -42 7 13 8 21 3 17
-9 -5 -25 51 -27 89 0 11 -16 25 -28 25 -5 0 -5 -5 -1 -11z"/>
<path d="M936 2045 c4 -8 8 -15 10 -15 2 0 4 7 4 15 0 8 -4 15 -10 15 -5 0 -7
-7 -4 -15z"/>
<path d="M1287 2040 c-3 -11 -4 -20 -3 -20 1 0 9 9 19 20 13 15 14 20 3 20 -7
0 -16 -9 -19 -20z"/>
<path d="M837 2034 c-9 -9 4 -35 14 -28 5 3 33 -13 62 -36 30 -22 56 -40 59
-40 3 0 3 12 0 26 -3 14 -8 21 -11 15 -5 -7 -27 3 -61 29 -60 45 -55 42 -63
34z"/>
<path d="M1396 1972 c-10 -31 -23 -60 -28 -63 -5 -3 0 -9 11 -12 12 -3 19 -2
16 3 -2 4 6 35 19 69 16 40 20 61 13 61 -7 0 -20 -26 -31 -58z"/>
<path d="M951 2004 c0 -11 3 -14 6 -6 3 7 2 16 -1 19 -3 4 -6 -2 -5 -13z"/>
<path d="M705 1981 c-3 -7 5 -32 19 -58 28 -50 27 -78 -4 -88 -28 -9 -39 1
-64 54 -12 26 -27 46 -33 44 -8 -3 -5 -16 9 -41 44 -77 70 -90 108 -52 11 11
22 20 25 20 3 0 10 0 16 0 6 0 3 8 -7 17 -9 10 -27 39 -39 66 -13 27 -26 44
-30 38z"/>
<path d="M851 1974 c0 -11 3 -14 6 -6 3 7 2 16 -1 19 -3 4 -6 -2 -5 -13z"/>
<path d="M861 1934 c0 -11 3 -14 6 -6 3 7 2 16 -1 19 -3 4 -6 -2 -5 -13z"/>
<path d="M1440 1946 c0 -2 7 -6 15 -10 8 -3 15 -1 15 4 0 6 -7 10 -15 10 -8 0
-15 -2 -15 -4z"/>
<path d="M1600 1938 c0 -6 -15 -32 -34 -58 -32 -44 -36 -60 -14 -60 4 0 8 5 8
10 0 6 16 32 34 59 27 39 32 50 20 55 -7 3 -14 0 -14 -6z"/>
<path d="M1651 1899 c-1 -26 -24 -45 -41 -34 -9 6 -1 -76 9 -87 4 -4 5 10 3
32 -3 30 -1 40 11 40 26 0 41 28 29 53 -10 22 -11 22 -11 -4z"/>
<path d="M995 1865 c-273 -51 -501 -258 -584 -529 -43 -139 -37 -323 13 -468
83 -237 311 -431 561 -478 94 -18 236 -16 315 4 155 39 308 139 412 268 111
139 158 276 160 468 1 208 -64 372 -207 516 -128 129 -281 204 -458 224 -102
12 -124 12 -212 -5z m250 -36 c5 -5 27 -9 50 -9 23 0 50 -7 61 -15 10 -8 27
-15 36 -15 9 0 38 -11 64 -24 37 -19 43 -25 28 -29 -12 -3 -7 -5 13 -6 17 0
34 -5 38 -11 3 -5 -28 -11 -77 -13 l-83 -3 97 -2 c53 -1 100 -6 103 -12 4 -7
-145 -10 -440 -10 -295 0 -444 3 -440 10 4 6 82 11 193 12 l187 2 -173 3
c-214 4 -224 22 -14 25 l147 2 -135 6 c-151 6 -152 19 -2 22 l97 2 -90 5 c-97
6 -95 20 3 22 48 1 52 3 22 8 -51 9 -16 21 68 22 42 1 56 4 37 8 -26 4 -24 6
20 11 61 8 177 1 190 -11z m360 -169 c4 -7 -157 -10 -475 -10 -318 0 -479 3
-475 10 4 6 173 10 475 10 302 0 471 -4 475 -10z m3 -524 l-3 -494 -24 -26
c-28 -30 -119 -61 -206 -70 -150 -16 -186 -27 -225 -66 -34 -34 -38 -36 -48
-19 -23 36 -90 59 -215 75 -161 20 -213 37 -238 78 -17 28 -19 52 -19 297 0
146 3 368 7 492 l6 227 484 0 484 0 -3 -494z m-998 444 c0 -5 -7 -10 -15 -10
-8 0 -15 5 -15 10 0 6 7 10 15 10 8 0 15 -4 15 -10z m1070 0 c0 -5 -7 -10 -15
-10 -8 0 -15 5 -15 10 0 6 7 10 15 10 8 0 15 -4 15 -10z m-1070 -30 c0 -5 -13
-10 -30 -10 -16 0 -30 5 -30 10 0 6 14 10 30 10 17 0 30 -4 30 -10z m1100 -5
c0 -8 5 -15 10 -15 6 0 10 -4 10 -10 0 -5 -17 -10 -39 -10 -34 0 -38 3 -38 25
0 21 4 25 28 25 19 0 29 -5 29 -15z m-1100 -25 c0 -5 -18 -10 -41 -10 -24 0
-38 4 -34 10 3 6 22 10 41 10 19 0 34 -4 34 -10z m0 -30 c0 -5 -23 -10 -51
-10 -31 0 -48 4 -44 10 3 6 26 10 51 10 24 0 44 -4 44 -10z m1135 1 c3 -5 -3
-12 -12 -14 -14 -4 -14 -5 3 -6 18 -1 31 -14 34 -36 1 -2 7 -17 15 -32 8 -14
12 -30 9 -35 -3 -4 0 -8 5 -8 6 0 11 -4 11 -10 0 -5 -28 -11 -62 -13 l-63 -3
68 -2 c99 -3 84 -22 -18 -22 -50 0 -85 4 -85 10 0 6 6 10 13 10 8 0 9 3 1 8
-7 4 -11 39 -11 85 l1 77 42 0 c24 0 45 -4 49 -9z m-1135 -31 c0 -5 -6 -10
-12 -11 -10 0 -10 -2 0 -6 6 -2 12 -16 12 -29 0 -18 -6 -24 -22 -25 l-23 -2
23 -4 c18 -4 22 -11 22 -39 l0 -34 -85 0 c-93 0 -121 19 -32 22 l52 2 -47 3
c-27 2 -48 6 -48 9 0 2 7 21 17 42 9 20 17 42 18 47 0 6 6 9 13 8 6 -2 9 4 6
12 -5 12 4 15 50 15 31 0 56 -4 56 -10z m0 -170 c0 -6 -37 -10 -90 -10 -53 0
-90 4 -90 10 0 6 37 10 90 10 53 0 90 -4 90 -10z m1220 0 c0 -6 -37 -10 -90
-10 -53 0 -90 4 -90 10 0 6 37 10 90 10 53 0 90 -4 90 -10z m-1220 -30 c0 -6
-38 -10 -95 -10 -57 0 -95 4 -95 10 0 6 38 10 95 10 57 0 95 -4 95 -10z m1225
0 c4 -6 -28 -10 -89 -10 -57 0 -96 4 -96 10 0 6 36 10 89 10 50 0 93 -4 96
-10z m-1225 -30 c0 -6 -38 -10 -95 -10 -57 0 -95 4 -95 10 0 6 38 10 95 10 57
0 95 -4 95 -10z m1230 0 c0 -6 -38 -10 -95 -10 -57 0 -95 4 -95 10 0 6 38 10
95 10 57 0 95 -4 95 -10z m-1230 -30 c0 -6 -38 -10 -95 -10 -57 0 -95 4 -95
10 0 6 38 10 95 10 57 0 95 -4 95 -10z m1230 0 c0 -6 -38 -10 -95 -10 -57 0
-95 4 -95 10 0 6 38 10 95 10 57 0 95 -4 95 -10z m-1230 -30 c0 -6 -40 -10
-100 -10 -60 0 -100 4 -100 10 0 6 40 10 100 10 60 0 100 -4 100 -10z m1230 0
c0 -6 -38 -10 -95 -10 -57 0 -95 4 -95 10 0 6 38 10 95 10 57 0 95 -4 95 -10z
m-1230 -30 c0 -6 -36 -11 -82 -12 l-83 -2 83 -3 c91 -4 112 -22 30 -25 l-53
-2 53 -3 c28 -2 52 -8 52 -14 0 -12 -187 -12 -195 1 -3 6 4 11 17 11 22 2 22
2 2 6 -15 3 -21 12 -21 29 0 24 0 24 98 24 59 0 99 -4 99 -10z m1235 0 c-3 -6
-48 -10 -101 -10 -56 0 -94 4 -94 10 0 6 40 10 101 10 64 0 98 -4 94 -10z m0
-30 c-3 -6 -48 -10 -101 -10 -56 0 -94 4 -94 10 0 6 40 10 101 10 64 0 98 -4
94 -10z m-5 -30 c0 -6 -38 -10 -95 -10 -57 0 -95 4 -95 10 0 6 38 10 95 10 57
0 95 -4 95 -10z m-1230 -30 c0 -5 -21 -11 -47 -12 l-48 -2 48 -3 c66 -6 59
-23 -10 -25 l-58 -2 58 -3 c48 -3 57 -7 55 -21 -2 -9 -14 -20 -28 -23 l-25 -7
28 -1 c44 -2 31 -21 -15 -23 l-43 -1 43 -4 c75 -7 45 -23 -43 -23 -88 0 -118
16 -42 23 l42 4 -46 1 c-29 1 -46 7 -46 15 0 6 -3 29 -7 50 l-6 37 48 2 47 1
-45 4 c-25 3 -49 8 -54 14 -6 5 28 9 92 9 61 0 102 -4 102 -10z m1230 0 c0 -5
-24 -11 -52 -12 l-53 -1 55 -7 c51 -5 53 -13 5 -23 -15 -3 -13 -5 8 -6 32 -1
37 -20 5 -22 -22 -2 -22 -2 -2 -6 20 -4 21 -7 11 -39 -8 -27 -16 -34 -36 -35
-24 -2 -24 -2 -3 -6 12 -2 22 -9 22 -14 0 -5 -10 -10 -22 -10 -17 -1 -19 -2
-5 -6 32 -8 17 -23 -25 -25 -42 -1 -42 -1 -7 -5 35 -4 36 -5 25 -28 -8 -18
-20 -25 -41 -26 -24 -1 -25 -3 -7 -6 27 -5 27 -4 1 -47 -15 -25 -28 -36 -45
-36 -33 0 -30 20 4 21 l27 2 -27 4 c-16 2 -28 9 -28 14 0 5 12 10 28 10 l27 2
-27 4 c-31 5 -38 22 -10 24 15 1 15 2 1 6 -25 6 -26 112 -1 114 16 1 16 2 0 6
-10 2 -18 9 -18 14 0 5 8 10 18 10 16 1 16 2 0 6 -25 6 -22 23 5 24 l22 2 -22
4 c-15 3 -23 12 -23 24 0 17 8 19 63 21 l62 2 -62 3 c-71 4 -86 22 -20 25 l42
1 -42 4 c-80 7 -44 23 52 23 57 0 95 -4 95 -10z m-1235 -170 c4 -6 -23 -10
-74 -10 -47 0 -81 4 -81 10 0 6 31 10 74 10 41 0 78 -4 81 -10z m0 -30 c4 -6
-20 -10 -64 -10 -41 0 -71 4 -71 10 0 6 28 10 64 10 36 0 68 -4 71 -10z m0
-30 c4 -6 -18 -10 -59 -10 -37 0 -66 4 -66 10 0 6 26 10 59 10 33 0 63 -4 66
-10z m0 -30 c4 -6 -17 -10 -54 -10 -34 0 -61 4 -61 10 0 6 24 10 54 10 30 0
58 -4 61 -10z m5 -30 c0 -5 -18 -10 -40 -10 -22 0 -43 0 -47 -1 -4 0 -9 4 -11
10 -2 7 15 11 47 11 28 0 51 -4 51 -10z m-5 -30 c4 -6 -10 -10 -34 -10 -23 0
-41 5 -41 10 0 6 15 10 34 10 19 0 38 -4 41 -10z m5 -30 c0 -5 -13 -10 -30
-10 -16 0 -30 5 -30 10 0 6 14 10 30 10 17 0 30 -4 30 -10z m0 -30 c0 -5 -6
-10 -14 -10 -8 0 -18 5 -21 10 -3 6 3 10 14 10 12 0 21 -4 21 -10z m1070 0 c0
-5 -7 -10 -15 -10 -8 0 -15 5 -15 10 0 6 7 10 15 10 8 0 15 -4 15 -10z m-1070
-30 c0 -5 -2 -10 -4 -10 -3 0 -8 5 -11 10 -3 6 -1 10 4 10 6 0 11 -4 11 -10z
m1050 6 c0 -3 -4 -8 -10 -11 -5 -3 -10 -1 -10 4 0 6 5 11 10 11 6 0 10 -2 10
-4z m-125 -106 c-3 -5 -12 -10 -18 -10 -7 0 -6 4 3 10 19 12 23 12 15 0z
m-782 -7 c-7 -2 -19 -2 -25 0 -7 3 -2 5 12 5 14 0 19 -2 13 -5z m737 -23 c-8
-6 -28 -10 -45 -11 -24 0 -26 -2 -11 -8 36 -14 -9 -21 -132 -21 -146 0 -134
19 13 21 75 2 89 4 55 8 l-45 7 70 8 c39 4 77 8 85 10 22 3 27 -4 10 -14z
m-565 0 c13 -6 -8 -9 -65 -9 -47 0 -92 4 -100 9 -19 12 136 12 165 0z m115
-30 c10 -7 -22 -10 -100 -10 -63 0 -122 5 -130 10 -10 7 22 10 100 10 63 0
122 -5 130 -10z m40 -30 c0 -12 -163 -12 -200 0 -16 5 16 8 88 9 68 1 112 -3
112 -9z m290 0 c-20 -13 -213 -13 -205 0 4 6 52 10 113 10 73 0 102 -3 92 -10z
m-270 -30 c0 -12 -49 -12 -105 -1 -36 8 -33 9 33 10 42 1 72 -3 72 -9z m170 0
c-37 -12 -122 -12 -115 0 3 6 36 10 73 9 49 -1 60 -3 42 -9z"/>
<path d="M1138 1823 c6 -2 18 -2 25 0 6 3 1 5 -13 5 -14 0 -19 -2 -12 -5z"/>
<path d="M1028 1793 c12 -2 32 -2 45 0 12 2 2 4 -23 4 -25 0 -35 -2 -22 -4z"/>
<path d="M1203 1793 c9 -2 23 -2 30 0 6 3 -1 5 -18 5 -16 0 -22 -2 -12 -5z"/>
<path d="M1278 1793 c18 -2 45 -2 60 0 15 2 0 4 -33 4 -33 0 -45 -2 -27 -4z"/>
<path d="M1058 1763 c6 -2 18 -2 25 0 6 3 1 5 -13 5 -14 0 -19 -2 -12 -5z"/>
<path d="M1308 1763 c12 -2 30 -2 40 0 9 3 -1 5 -23 4 -22 0 -30 -2 -17 -4z"/>
<path d="M1318 1733 c6 -2 18 -2 25 0 6 3 1 5 -13 5 -14 0 -19 -2 -12 -5z"/>
<path d="M1423 1733 c9 -2 23 -2 30 0 6 3 -1 5 -18 5 -16 0 -22 -2 -12 -5z"/>
<path d="M1208 1703 c7 -3 16 -2 19 1 4 3 -2 6 -13 5 -11 0 -14 -3 -6 -6z"/>
<path d="M1268 1703 c18 -2 45 -2 60 0 15 2 0 4 -33 4 -33 0 -45 -2 -27 -4z"/>
<path d="M657 1543 c-4 -38 -7 -255 -7 -483 0 -459 -2 -446 64 -474 39 -16 78
-23 203 -35 90 -10 155 -32 182 -65 12 -14 17 -13 47 13 32 29 86 50 129 52
11 0 14 3 8 6 -8 2 -13 22 -13 44 0 32 -4 39 -19 39 -12 0 -23 11 -29 29 -12
34 -8 41 25 41 19 0 23 5 23 30 0 17 4 30 9 30 12 0 180 -178 173 -185 -3 -3
-15 -5 -26 -6 -12 0 -15 -3 -9 -6 22 -8 119 26 146 51 l27 25 0 481 0 480
-107 -1 c-60 0 -103 -2 -98 -5 6 -2 -46 -62 -115 -134 -87 -90 -126 -125 -129
-113 -2 9 12 30 32 47 41 36 51 60 37 87 -9 15 -3 27 30 63 23 25 51 47 63 49
12 2 -127 5 -309 6 l-331 1 -6 -67z m362 13 c38 -38 41 -46 30 -63 -7 -12 -9
-31 -5 -46 7 -28 26 -37 26 -13 0 32 25 35 54 5 16 -16 26 -32 23 -36 -4 -3
-7 -1 -7 6 0 7 -5 9 -10 6 -6 -3 -13 0 -16 9 -3 8 -12 17 -20 20 -8 3 -12 2
-9 -3 3 -5 0 -13 -6 -17 -9 -5 -8 -10 3 -18 16 -12 42 -56 36 -62 -2 -2 -62
55 -133 126 l-130 130 61 0 c58 0 61 -2 103 -44z m24 10 c15 -19 27 -38 27
-42 0 -10 -50 37 -61 59 -16 29 5 19 34 -17z m35 9 c7 -14 12 -31 12 -37 0
-13 -38 20 -51 44 -8 14 -6 18 9 18 10 0 24 -11 30 -25z m42 -10 c0 -43 -5
-44 -25 -5 -19 37 -19 40 5 40 16 0 20 -7 20 -35z m45 5 c-9 -16 -18 -30 -20
-30 -3 0 -5 14 -5 30 0 23 4 30 20 30 20 0 20 -1 5 -30z m48 13 c-6 -16 -3
-15 17 2 l23 20 -12 -23 c-7 -13 -18 -21 -24 -19 -7 2 -21 -3 -31 -12 -19 -16
-19 -15 -1 17 20 34 39 44 28 15z m-113 -86 c-8 -7 -23 -20 -32 -30 -10 -10
-18 -15 -18 -10 0 16 35 53 50 53 13 -1 13 -2 0 -13z m59 -5 c-7 -3 -19 -12
-25 -20 -8 -11 -13 -12 -18 -4 -9 15 2 34 15 27 5 -4 9 -2 9 4 0 6 8 7 17 4
14 -5 14 -8 2 -11z m36 -11 c3 -5 1 -12 -5 -16 -5 -3 -10 1 -10 9 0 18 6 21
15 7z m-25 -31 c0 -5 -4 -10 -10 -10 -5 0 -10 5 -10 10 0 6 5 10 10 10 6 0 10
-4 10 -10z m-383 -447 l-127 -128 0 255 0 255 127 -128 128 -127 -128 -127z
m793 125 l0 -253 -121 122 c-67 67 -119 127 -117 133 2 8 225 243 236 249 1 0
2 -113 2 -251z m-511 191 c17 -6 36 -19 41 -29 11 -21 13 -163 4 -234 -6 -38
-10 -46 -23 -40 -9 4 -37 9 -63 12 l-48 4 0 149 0 149 29 0 c15 0 42 -5 60
-11z m196 -31 c3 -18 6 -60 8 -93 2 -56 3 -58 16 -36 10 18 11 28 1 46 -6 12
-10 35 -7 51 4 28 4 28 7 -6 l2 -35 8 30 c5 20 8 -5 9 -74 1 -94 -1 -103 -13
-85 -14 18 -15 17 -11 -15 3 -21 1 -31 -5 -25 -5 5 -10 25 -13 44 -3 30 -4 29
-5 -12 -2 -40 -5 -45 -20 -41 -11 2 -36 -3 -57 -11 -20 -9 -41 -16 -46 -16
-11 0 -12 260 -1 276 13 20 47 33 84 34 34 0 38 -3 43 -32z m-295 -114 c0 -77
-5 -144 -11 -155 -10 -19 -9 -20 12 -9 29 16 105 7 128 -14 17 -16 21 -16 52
3 54 31 92 35 119 13 l23 -19 -73 -7 c-51 -4 -77 -12 -87 -24 -12 -16 -14 -16
-27 1 -10 13 -28 17 -84 17 -54 0 -71 3 -76 16 -3 9 -6 76 -6 149 0 73 3 140
6 149 16 42 24 4 24 -120z m317 4 c-3 -8 -6 -5 -6 6 -1 11 2 17 5 13 3 -3 4
-12 1 -19z m20 -155 c-3 -10 -5 -4 -5 12 0 17 2 24 5 18 2 -7 2 -21 0 -30z
m-77 -205 c0 -4 -10 -8 -22 -8 -17 0 -19 -3 -10 -12 18 -18 15 -28 -9 -28 -16
0 -19 4 -14 20 6 18 2 20 -41 20 -37 0 -45 -3 -36 -12 19 -19 14 -28 -13 -28
-27 0 -32 9 -13 28 9 9 3 12 -27 12 l-39 0 59 60 59 60 53 -52 c29 -29 53 -56
53 -60z m-180 -33 c-7 -9 -15 -13 -17 -11 -7 7 7 26 19 26 6 0 6 -6 -2 -15z
m102 -7 c-7 -7 -12 -8 -12 -2 0 14 12 26 19 19 2 -3 -1 -11 -7 -17z m108 -18
l0 -40 -127 2 -128 2 123 3 122 4 0 34 c0 19 2 35 5 35 3 0 5 -18 5 -40z
m-234 -50 c30 -5 31 -5 17 -37 -8 -22 -20 -33 -33 -33 -17 0 -20 -7 -20 -43
l0 -43 -82 8 c-148 14 -146 5 -27 124 l104 105 5 -38 c4 -33 9 -39 36 -43z
m184 -50 c0 -13 -1 -13 -10 0 -5 8 -10 22 -10 30 0 13 1 13 10 0 5 -8 10 -22
10 -30z m47 -82 c-2 -13 -4 -5 -4 17 -1 22 1 32 4 23 2 -10 2 -28 0 -40z
m-131 26 c-9 -8 -16 -29 -16 -45 0 -27 -2 -29 -37 -28 -31 2 -33 3 -10 6 21 3
27 10 27 28 0 37 10 55 32 55 18 0 18 -1 4 -16z m5 -97 c-16 -16 -19 -17 -31
-3 -10 13 -10 16 4 16 11 0 16 9 16 33 0 49 14 55 22 10 5 -29 2 -42 -11 -56z
m49 33 c0 -5 -4 -10 -10 -10 -5 0 -10 5 -10 10 0 6 5 10 10 10 6 0 10 -4 10
-10z"/>
<path d="M1001 1266 c7 -7 109 -44 109 -40 0 7 -83 44 -99 44 -8 0 -12 -2 -10
-4z"/>
<path d="M1005 1180 c3 -5 16 -10 28 -10 13 0 33 -8 46 -17 14 -9 21 -11 16
-4 -8 13 -66 41 -85 41 -6 0 -8 -4 -5 -10z"/>
<path d="M1000 1101 c0 -5 12 -11 28 -14 15 -3 36 -9 47 -12 19 -6 19 -6 2 5
-26 17 -77 30 -77 21z"/>
<path d="M1180 1250 c-45 -24 -28 -24 25 0 22 10 33 19 25 19 -8 0 -31 -8 -50
-19z"/>
<path d="M1178 1174 c-38 -20 -35 -26 5 -10 17 7 39 16 47 19 11 4 9 6 -5 6
-11 0 -32 -7 -47 -15z"/>
<path d="M1291 1124 c0 -11 3 -14 6 -6 3 7 2 16 -1 19 -3 4 -6 -2 -5 -13z"/>
<path d="M1170 1090 c-45 -25 -37 -25 25 0 28 10 41 19 30 19 -11 0 -36 -8
-55 -19z"/>
<path d="M1323 563 c15 -2 39 -2 55 0 15 2 2 4 -28 4 -30 0 -43 -2 -27 -4z"/>
<path d="M1678 1533 c7 -3 16 -2 19 1 4 3 -2 6 -13 5 -11 0 -14 -3 -6 -6z"/>
<path d="M1723 1363 c9 -2 25 -2 35 0 9 3 1 5 -18 5 -19 0 -27 -2 -17 -5z"/>
<path d="M468 1093 c7 -3 16 -2 19 1 4 3 -2 6 -13 5 -11 0 -14 -3 -6 -6z"/>
<path d="M1688 973 c7 -3 16 -2 19 1 4 3 -2 6 -13 5 -11 0 -14 -3 -6 -6z"/>
<path d="M1728 973 c7 -3 16 -2 19 1 4 3 -2 6 -13 5 -11 0 -14 -3 -6 -6z"/>
<path d="M1718 893 c6 -2 18 -2 25 0 6 3 1 5 -13 5 -14 0 -19 -2 -12 -5z"/>
<path d="M1718 803 c6 -2 18 -2 25 0 6 3 1 5 -13 5 -14 0 -19 -2 -12 -5z"/>
<path d="M1759 1794 c-7 -9 -12 -35 -10 -60 2 -42 0 -45 -21 -42 -14 2 -24 12
-28 28 -3 14 -9 20 -13 14 -12 -20 23 -55 51 -52 25 3 27 6 27 56 1 35 6 56
15 62 8 6 10 10 4 10 -6 0 -17 -7 -25 -16z"/>
<path d="M386 1721 c-16 -17 -15 -19 6 -34 13 -8 37 -29 55 -45 31 -29 32 -30
49 -10 17 18 17 18 1 12 -11 -4 -26 1 -38 11 -19 18 -19 18 2 41 15 16 17 24
8 29 -7 5 -10 4 -6 -2 4 -6 -2 -18 -13 -28 -19 -17 -21 -17 -40 0 -15 14 -17
21 -9 32 17 20 4 16 -15 -6z"/>
<path d="M516 1673 c-6 -14 -5 -15 5 -6 7 7 10 15 7 18 -3 3 -9 -2 -12 -12z"/>
<path d="M1847 1634 c-26 -19 -52 -32 -58 -28 -6 3 -5 -3 2 -14 10 -16 15 -18
23 -8 18 20 84 66 96 66 6 0 8 5 5 10 -9 15 -16 13 -68 -26z"/>
<path d="M289 1579 c-6 -13 -7 -19 -1 -15 6 3 22 1 36 -5 24 -11 25 -13 9 -43
-21 -42 -19 -41 -49 -21 -22 14 -28 15 -35 4 -6 -10 -2 -16 14 -20 12 -3 41
-16 64 -27 50 -26 49 -26 57 -6 3 8 2 12 -3 9 -5 -3 -21 0 -34 6 -25 11 -25
12 -9 45 17 38 28 41 59 19 17 -12 22 -12 26 -1 3 8 -12 19 -44 31 -28 9 -56
24 -64 31 -12 12 -16 11 -26 -7z"/>
<path d="M1960 1571 c0 -6 4 -13 10 -16 6 -3 7 1 4 9 -7 18 -14 21 -14 7z"/>
<path d="M1980 1534 c0 -7 -26 -22 -57 -35 -69 -27 -66 -25 -59 -37 3 -5 31 4
63 19 53 26 59 27 70 12 7 -9 10 -20 7 -24 -3 -5 0 -9 5 -9 6 0 11 3 11 8 -1
13 -39 77 -40 66z"/>
<path d="M210 1379 c0 -5 5 -7 10 -4 6 3 10 8 10 11 0 2 -4 4 -10 4 -5 0 -10
-5 -10 -11z"/>
<path d="M2008 1344 c-22 -20 -48 -34 -63 -34 -14 0 -25 -6 -25 -14 0 -22 76
3 106 35 40 42 24 52 -18 13z"/>
<path d="M200 1342 c0 -16 11 -22 60 -31 74 -15 74 -15 78 -3 1 5 -22 13 -53
17 -30 3 -62 13 -70 21 -13 14 -15 13 -15 -4z"/>
<path d="M187 1290 c-3 -11 -1 -20 4 -20 5 0 9 9 9 20 0 11 -2 20 -4 20 -2 0
-6 -9 -9 -20z"/>
<path d="M2040 1286 c0 -2 7 -6 15 -10 8 -3 15 -1 15 4 0 6 -7 10 -15 10 -8 0
-15 -2 -15 -4z"/>
<path d="M230 1110 c0 -5 5 -10 10 -10 6 0 10 5 10 10 0 6 -4 10 -10 10 -5 0
-10 -4 -10 -10z"/>
<path d="M2005 1110 c3 -5 8 -10 11 -10 2 0 4 5 4 10 0 6 -5 10 -11 10 -5 0
-7 -4 -4 -10z"/>
<path d="M253 950 c-12 -5 -26 -18 -32 -29 -16 -30 -13 -33 9 -11 29 29 66 35
98 15 l27 -17 -20 20 c-25 25 -54 33 -82 22z"/>
<path d="M1920 945 c0 -11 19 -18 84 -31 11 -3 25 -9 32 -14 8 -7 13 -6 18 5
3 9 0 15 -8 15 -7 0 -38 8 -69 19 -42 13 -57 15 -57 6z"/>
<path d="M309 838 c-29 -15 -43 -16 -65 -8 -27 9 -28 9 -10 -5 28 -21 79 -19
101 5 25 27 17 29 -26 8z"/>
<path d="M1890 853 c0 -5 32 -18 70 -29 56 -17 70 -19 70 -8 0 8 -9 14 -19 14
-11 0 -27 7 -35 16 -9 8 -16 11 -16 5 0 -7 -8 -7 -26 -1 -30 12 -44 13 -44 3z"/>
<path d="M400 754 c0 -6 -27 -24 -59 -41 -32 -17 -56 -35 -52 -40 3 -5 34 7
68 27 47 28 59 40 52 51 -5 8 -9 9 -9 3z"/>
<path d="M1833 727 c-10 -12 -11 -17 -3 -10 8 6 24 13 35 15 17 3 18 5 3 10
-10 4 -23 -1 -35 -15z"/>
<path d="M1911 697 c-7 -10 -8 -16 -2 -13 6 4 19 -2 30 -13 13 -13 21 -16 24
-7 3 6 -5 21 -18 32 -22 20 -23 20 -34 1z"/>
<path d="M433 685 c0 -8 4 -12 9 -9 5 3 6 10 3 15 -9 13 -12 11 -12 -6z"/>
<path d="M1811 677 c-1 -35 38 -77 72 -77 14 0 33 8 44 18 10 9 14 14 9 10
-35 -27 -107 7 -119 57 -3 15 -5 13 -6 -8z"/>
<path d="M367 670 c3 -11 9 -20 15 -20 5 0 4 9 -2 20 -6 11 -12 20 -14 20 -2
0 -2 -9 1 -20z"/>
<path d="M1715 560 c-3 -5 3 -10 13 -10 26 0 37 -30 18 -49 -14 -13 -18 -13
-39 7 -13 12 -26 20 -29 17 -7 -7 85 -101 95 -97 5 2 -1 15 -13 27 -31 33 -18
47 38 40 35 -5 43 -4 32 4 -8 6 -25 11 -37 11 -15 0 -23 6 -23 18 0 33 -40 56
-55 32z"/>
<path d="M573 523 c4 -6 -13 -33 -37 -60 l-44 -49 33 -27 c42 -33 56 -36 18
-3 -27 24 -28 24 -9 45 16 17 22 19 35 8 14 -11 14 -10 2 6 -13 16 -12 21 7
40 l22 21 27 -25 c15 -13 21 -16 14 -6 -16 21 -78 66 -68 50z"/>
<path d="M1577 449 c-16 -9 -16 -13 -4 -22 8 -7 23 -28 35 -48 20 -33 20 -37
6 -58 -25 -35 -53 -23 -85 37 -15 29 -31 48 -34 42 -4 -6 7 -32 23 -58 34 -56
62 -64 99 -30 13 13 26 22 29 21 15 -9 10 4 -22 52 -19 31 -32 60 -29 65 8 12
5 12 -18 -1z"/>
<path d="M590 419 c0 -5 5 -7 10 -4 6 3 10 8 10 11 0 2 -4 4 -10 4 -5 0 -10
-5 -10 -11z"/>
<path d="M725 407 c3 -7 -8 -38 -23 -69 -26 -52 -27 -57 -10 -61 10 -3 16 -1
13 3 -3 5 6 34 20 66 30 67 29 61 11 67 -9 4 -13 1 -11 -6z"/>
<path d="M806 345 c5 -42 -6 -63 -41 -83 -18 -10 -18 -11 -2 -12 25 0 67 45
67 73 0 13 -6 32 -14 43 -13 17 -14 16 -10 -21z"/>
<path d="M1363 339 c9 -5 17 -19 17 -29 0 -10 -8 -24 -17 -30 -14 -8 -14 -10
-3 -9 40 4 61 -21 39 -47 -8 -10 -8 -14 -1 -14 6 0 17 10 23 22 10 18 8 24
-10 39 -14 11 -19 23 -14 35 6 17 -19 44 -41 44 -6 0 -3 -5 7 -11z"/>
<path d="M936 325 c3 -7 -1 -38 -9 -68 -8 -31 -12 -58 -9 -61 12 -12 18 -5 20
24 1 17 8 48 16 70 12 35 12 39 -5 43 -11 3 -16 0 -13 -8z"/>
<path d="M1312 332 c-8 -2 -10 -8 -4 -15 5 -7 15 -36 22 -64 10 -44 16 -53 33
-53 18 0 19 2 7 10 -8 5 -22 36 -30 68 -10 39 -19 57 -28 54z"/>
<path d="M1075 240 c0 -40 4 -70 10 -70 6 0 9 25 7 62 l-3 63 33 -40 c18 -21
41 -48 50 -60 11 -12 17 -15 18 -7 0 17 -90 122 -104 122 -7 0 -11 -27 -11
-70z"/>
<path d="M1180 299 c0 -5 5 -7 10 -4 6 3 10 8 10 11 0 2 -4 4 -10 4 -5 0 -10
-5 -10 -11z"/>
</g>
</svg>
